<svg xmlns="http://www.w3.org/2000/svg" width="750" height="550" viewBox="40 -18 1000 420" fill="none">
<g clip-path="url(#clip0)">
<path d="M529.605 468.813L470.22 27.1231C468.31 12.919 455.248 2.95243 441.043 4.86217L245.57 31.1435C231.366 33.0533 221.399 46.1161 223.309 60.3203L282.694 502.011C284.604 516.215 297.667 526.181 311.871 524.272L507.344 497.99C521.549 496.08 531.515 483.018 529.605 468.813Z" fill="#9797A3"></path>
<path d="M528.7 473.402L468.814 27.9871C467.042 14.8115 454.925 5.56664 441.75 7.3381L242.552 34.1202C229.376 35.8917 220.131 48.0087 221.903 61.1843L281.789 506.599C283.56 519.775 295.677 529.02 308.853 527.248L508.051 500.466C521.226 498.695 530.471 486.578 528.7 473.402Z" fill="#310047"></path>
<path d="M521.329 457.539L464.766 36.8424L228.144 68.6563L284.707 489.353L521.329 457.539Z" fill="#F5F8FA"></path>
<path d="M464.785 36.8598L521.377 457.553L284.788 489.366L228.169 68.6926L464.785 36.8598ZM466.017 35.2541L226.546 67.4585L283.528 491.003L523 458.787L466.017 35.2541Z" fill="#F5F8FA"></path>
<path d="M414.344 496.956L413.99 494.324C413.956 494.075 413.727 493.9 413.478 493.934L396.29 496.245C396.041 496.278 395.866 496.507 395.899 496.757L396.253 499.388C396.287 499.637 396.516 499.812 396.765 499.778L413.953 497.468C414.202 497.434 414.377 497.205 414.344 496.956Z" fill="#6B1C9F"></path>
<path d="M343.776 40.5397C343.248 40.5903 342.718 40.4846 342.25 40.2359C341.782 39.9872 341.398 39.6064 341.144 39.1409C340.891 38.6754 340.781 38.1457 340.826 37.6178C340.872 37.0899 341.072 36.587 341.401 36.1718C341.73 35.7566 342.174 35.4473 342.678 35.2825C343.181 35.1177 343.722 35.1045 344.233 35.2447C344.744 35.385 345.202 35.6723 345.551 36.0711C345.9 36.4698 346.124 36.9624 346.195 37.4875C346.279 38.2131 346.071 38.9423 345.618 39.5147C345.164 40.0871 344.501 40.4558 343.776 40.5397Z" fill="#6B1C9F"></path>
<path d="M464.633 35.808L228.01 67.6218L229.74 80.4841L466.362 48.6703L464.633 35.808Z" fill="#8C1CB4"></path>
<path d="M251.901 71.0496C251.976 71.4452 251.93 71.8542 251.77 72.2236C251.61 72.593 251.343 72.9059 251.003 73.122C250.663 73.338 250.267 73.4473 249.864 73.4356C249.462 73.4239 249.072 73.2919 248.746 73.0565C248.419 72.8211 248.17 72.4932 248.032 72.1151C247.894 71.737 247.872 71.3261 247.969 70.9355C248.067 70.5449 248.279 70.1925 248.579 69.9239C248.879 69.6552 249.252 69.4826 249.651 69.4284C249.906 69.3871 250.165 69.3963 250.416 69.4555C250.667 69.5146 250.903 69.6225 251.112 69.7731C251.321 69.9236 251.498 70.1139 251.633 70.3329C251.769 70.5519 251.86 70.7955 251.901 71.0496ZM263.617 67.5484C263.249 67.6175 262.909 67.7931 262.64 68.0535C262.371 68.3138 262.184 68.6474 262.102 69.0129C262.021 69.3785 262.048 69.7599 262.181 70.11C262.314 70.46 262.547 70.7634 262.851 70.9823C263.155 71.2013 263.516 71.3263 263.891 71.3419C264.265 71.3575 264.635 71.263 264.956 71.07C265.277 70.8771 265.535 70.5942 265.696 70.2564C265.858 69.9186 265.917 69.5408 265.867 69.1697C265.826 68.9143 265.734 68.6695 265.598 68.4494C265.462 68.2294 265.284 68.0384 265.074 67.8876C264.864 67.7367 264.626 67.6289 264.374 67.5705C264.122 67.512 263.861 67.504 263.605 67.5469L263.617 67.5484ZM236.475 71.2105C236.109 71.2805 235.771 71.4562 235.504 71.716C235.236 71.9759 235.051 72.3083 234.97 72.6724C234.89 73.0364 234.918 73.4161 235.05 73.7645C235.183 74.1129 235.415 74.4148 235.718 74.6328C236.02 74.8508 236.38 74.9754 236.752 74.9912C237.125 75.0071 237.494 74.9134 237.814 74.7218C238.134 74.5302 238.39 74.2491 238.552 73.9132C238.714 73.5773 238.774 73.2014 238.725 72.8318C238.684 72.5773 238.594 72.3333 238.459 72.1139C238.323 71.8945 238.146 71.704 237.937 71.5533C237.728 71.4026 237.491 71.2947 237.24 71.2359C236.989 71.1771 236.729 71.1684 236.475 71.2105Z" fill="white"></path>
<path d="M457.702 43.3855C457.779 43.7834 457.735 44.1952 457.575 44.5677C457.415 44.9401 457.147 45.256 456.806 45.4745C456.465 45.693 456.066 45.8041 455.661 45.7933C455.255 45.7826 454.863 45.6505 454.534 45.4142C454.204 45.1779 453.954 44.8482 453.814 44.4679C453.674 44.0875 453.651 43.6739 453.749 43.2806C453.847 42.8873 454.061 42.5324 454.362 42.2618C454.664 41.9912 455.04 41.8173 455.441 41.7627C455.697 41.7198 455.958 41.7278 456.21 41.7863C456.462 41.8447 456.7 41.9525 456.91 42.1033C457.12 42.2542 457.298 42.4451 457.434 42.6652C457.57 42.8853 457.661 43.1301 457.702 43.3855ZM445.273 43.1284C444.906 43.1996 444.568 43.3767 444.3 43.6379C444.033 43.8991 443.848 44.2329 443.768 44.5982C443.688 44.9634 443.716 45.3441 443.85 45.6932C443.984 46.0422 444.218 46.3444 444.521 46.5625C444.825 46.7805 445.186 46.9047 445.56 46.9199C445.933 46.9351 446.303 46.8405 446.624 46.6479C446.944 46.4552 447.201 46.1729 447.363 45.8359C447.525 45.4988 447.584 45.1217 447.534 44.7512C447.494 44.4947 447.404 44.2485 447.269 44.0268C447.134 43.8051 446.957 43.6123 446.747 43.4594C446.537 43.3065 446.299 43.1965 446.047 43.1357C445.794 43.0749 445.532 43.0646 445.276 43.1053L445.273 43.1284Z" fill="white"></path>
<path d="M354.665 55.0721L339.148 57.1583L339.656 60.9407L355.173 58.8544L354.665 55.0721Z" fill="white"></path>
<path opacity="0.34" d="M265.373 376.756L223.779 67.5588C221.717 52.2338 229.254 38.5646 240.626 37.0371L438.34 10.4376L265.373 376.756Z" fill="white"></path>
<mask id="mask0" mask-type="alpha" maskUnits="userSpaceOnUse" x="97" y="-32" width="529" height="540">
<rect x="97.0723" y="31.9617" width="466.453" height="480.532" transform="rotate(-7.88142 97.0723 31.9617)" fill="#C4C4C4"></rect>
</mask>
<g mask="url(#mask0)">
<path d="M544.35 231.634C561.671 231.634 575.713 217.592 575.713 200.27C575.713 182.949 561.671 168.907 544.35 168.907C527.029 168.907 512.987 182.949 512.987 200.27C512.987 217.592 527.029 231.634 544.35 231.634Z" fill="url(#paint0_linear)"></path>
<path d="M556.761 186.781C557.103 186.911 557.415 187.108 557.68 187.359C557.945 187.611 558.157 187.913 558.305 188.247C558.452 188.582 558.531 188.942 558.537 189.307C558.544 189.673 558.478 190.036 558.343 190.375C558.128 191.024 557.682 191.57 557.09 191.91C556.497 192.251 555.8 192.361 555.132 192.22H554.845L545.261 188.722C544.407 188.437 543.477 188.485 542.657 188.857C541.837 189.229 541.187 189.897 540.839 190.727C540.491 191.557 540.469 192.488 540.778 193.334C541.087 194.18 541.704 194.877 542.505 195.287L542.841 195.431L546.674 196.82C548.801 197.751 550.502 199.443 551.444 201.565C552.385 203.686 552.5 206.083 551.764 208.284C551.028 210.485 549.496 212.332 547.468 213.46C545.44 214.589 543.063 214.918 540.804 214.383L540.325 214.215L530.741 210.741C530.394 210.595 530.079 210.381 529.815 210.112C529.55 209.844 529.342 209.525 529.202 209.175C529.061 208.825 528.992 208.451 528.997 208.074C529.002 207.697 529.082 207.325 529.232 206.979C529.495 206.386 529.95 205.898 530.523 205.594C531.097 205.29 531.755 205.187 532.394 205.302H532.682L542.266 208.776C543.12 209.061 544.05 209.013 544.87 208.641C545.69 208.27 546.339 207.602 546.688 206.772C547.036 205.941 547.058 205.01 546.749 204.165C546.44 203.319 545.823 202.621 545.021 202.211L544.71 202.068L540.852 200.678C538.69 199.771 536.951 198.08 535.982 195.944C535.014 193.809 534.889 191.386 535.631 189.162C536.373 186.938 537.929 185.077 539.986 183.951C542.043 182.825 544.449 182.518 546.722 183.092L547.178 183.259L556.761 186.781Z" fill="#F07A01"></path>
<path d="M551.969 178.611C552.629 178.846 553.179 179.315 553.515 179.929C553.85 180.544 553.949 181.26 553.79 181.942V182.277L551.826 187.644C551.595 188.351 551.098 188.94 550.439 189.286C549.78 189.631 549.013 189.705 548.3 189.493C547.587 189.28 546.986 188.798 546.624 188.148C546.262 187.498 546.168 186.733 546.363 186.015V185.679L548.304 180.312C548.432 179.96 548.629 179.635 548.883 179.359C549.137 179.082 549.443 178.858 549.783 178.7C550.124 178.542 550.492 178.453 550.867 178.438C551.243 178.422 551.617 178.481 551.969 178.611Z" fill="#F07A01"></path>
<path d="M541.235 208.177C541.89 208.416 542.435 208.887 542.766 209.501C543.097 210.115 543.192 210.828 543.032 211.507V211.843L541.068 217.21C540.939 217.562 540.743 217.887 540.489 218.163C540.235 218.44 539.929 218.664 539.588 218.822C539.248 218.98 538.879 219.069 538.504 219.084C538.129 219.1 537.754 219.041 537.402 218.911C536.75 218.667 536.209 218.195 535.878 217.583C535.548 216.97 535.451 216.259 535.605 215.58V215.269L537.57 209.878C537.698 209.525 537.894 209.201 538.148 208.924C538.402 208.648 538.709 208.424 539.049 208.266C539.39 208.108 539.758 208.018 540.133 208.003C540.509 207.988 540.883 208.047 541.235 208.177Z" fill="#F07A01"></path>
<path d="M193.816 386.263C213.305 386.263 229.103 370.464 229.103 350.976C229.103 331.487 213.305 315.689 193.816 315.689C174.328 315.689 158.529 331.487 158.529 350.976C158.529 370.464 174.328 386.263 193.816 386.263Z" fill="url(#paint1_linear)"></path>
<path d="M193.206 330.446C193.953 330.142 194.786 330.13 195.541 330.411C196.297 330.693 196.919 331.247 197.285 331.965C197.651 332.683 197.735 333.512 197.519 334.289C197.303 335.065 196.804 335.733 196.12 336.159L195.815 336.311L185.36 340.977C184.457 341.42 183.753 342.185 183.387 343.122C183.021 344.059 183.02 345.099 183.383 346.037C183.747 346.975 184.449 347.742 185.351 348.188C186.253 348.633 187.289 348.724 188.255 348.442L188.636 348.289L192.806 346.385C195.265 345.428 197.994 345.436 200.447 346.407C202.9 347.378 204.895 349.241 206.032 351.621C207.169 354.001 207.364 356.724 206.579 359.242C205.793 361.761 204.084 363.889 201.795 365.2L201.3 365.447L190.845 370.094C190.096 370.416 189.252 370.442 188.484 370.166C187.717 369.89 187.083 369.333 186.71 368.607C186.338 367.882 186.254 367.042 186.478 366.257C186.701 365.473 187.213 364.802 187.912 364.381L188.217 364.229L198.691 359.563C199.604 359.125 200.318 358.357 200.69 357.414C201.062 356.472 201.063 355.424 200.695 354.48C200.327 353.536 199.615 352.766 198.703 352.324C197.791 351.883 196.746 351.802 195.777 352.098L195.415 352.231L191.226 354.136C188.775 355.062 186.067 355.034 183.636 354.058C181.205 353.082 179.229 351.229 178.099 348.866C176.969 346.503 176.767 343.802 177.533 341.297C178.3 338.792 179.978 336.666 182.237 335.34L182.751 335.092L193.206 330.446Z" fill="#F07A01"></path>
<path d="M183.037 327.494C183.757 327.174 184.569 327.128 185.321 327.367C186.072 327.606 186.709 328.112 187.112 328.789L187.284 329.113L189.912 334.997C190.26 335.75 190.304 336.608 190.035 337.392C189.766 338.176 189.204 338.827 188.467 339.207C187.731 339.588 186.876 339.67 186.081 339.435C185.285 339.201 184.611 338.668 184.199 337.949L184.027 337.625L181.399 331.741C181.228 331.355 181.134 330.938 181.124 330.516C181.113 330.093 181.186 329.673 181.339 329.278C181.491 328.884 181.719 328.524 182.01 328.217C182.302 327.911 182.651 327.666 183.037 327.494Z" fill="#F07A01"></path>
<path d="M197.434 359.811C198.154 359.491 198.967 359.445 199.718 359.684C200.469 359.923 201.107 360.429 201.509 361.106L201.7 361.449L204.309 367.314C204.703 368.072 204.78 368.955 204.522 369.769C204.265 370.584 203.695 371.262 202.938 371.656C202.18 372.05 201.297 372.127 200.483 371.87C199.669 371.613 198.99 371.043 198.596 370.285L198.424 369.942L195.796 364.058C195.449 363.28 195.425 362.396 195.728 361.6C196.032 360.804 196.638 360.161 197.415 359.811H197.434Z" fill="#F07A01"></path>
<path d="M298.267 205.792C310.246 205.792 319.957 196.081 319.957 184.102C319.957 172.123 310.246 162.412 298.267 162.412C286.288 162.412 276.577 172.123 276.577 184.102C276.577 196.081 286.288 205.792 298.267 205.792Z" fill="url(#paint2_linear)"></path>
<path d="M297.892 171.483C298.351 171.296 298.863 171.289 299.328 171.462C299.792 171.635 300.174 171.975 300.399 172.417C300.624 172.858 300.676 173.368 300.543 173.845C300.411 174.322 300.104 174.732 299.683 174.994L299.496 175.088L293.07 177.956C292.515 178.228 292.082 178.699 291.857 179.275C291.632 179.85 291.631 180.49 291.854 181.066C292.078 181.643 292.51 182.114 293.064 182.388C293.618 182.662 294.255 182.718 294.849 182.544L295.083 182.451L297.647 181.28C299.158 180.692 300.835 180.697 302.343 181.294C303.851 181.891 305.077 183.035 305.776 184.499C306.475 185.962 306.595 187.635 306.112 189.183C305.629 190.731 304.579 192.039 303.171 192.845L302.867 192.997L296.441 195.853C295.98 196.051 295.462 196.067 294.99 195.898C294.518 195.728 294.128 195.386 293.899 194.94C293.67 194.494 293.619 193.977 293.756 193.495C293.894 193.013 294.209 192.601 294.638 192.342L294.825 192.248L301.263 189.38C301.825 189.111 302.264 188.639 302.492 188.06C302.721 187.48 302.722 186.836 302.495 186.256C302.269 185.675 301.832 185.202 301.271 184.931C300.711 184.659 300.068 184.61 299.472 184.792L299.25 184.874L296.675 186.044C295.169 186.613 293.504 186.596 292.01 185.996C290.515 185.397 289.301 184.258 288.606 182.805C287.911 181.353 287.787 179.692 288.258 178.153C288.73 176.613 289.761 175.306 291.15 174.491L291.466 174.339L297.892 171.483Z" fill="#F07A01"></path>
<path d="M291.642 169.668C292.084 169.471 292.584 169.443 293.045 169.59C293.507 169.737 293.899 170.048 294.147 170.464L294.252 170.663L295.867 174.28C296.081 174.743 296.108 175.27 295.943 175.752C295.778 176.234 295.432 176.634 294.98 176.868C294.527 177.102 294.001 177.152 293.512 177.008C293.024 176.864 292.609 176.536 292.356 176.094L292.25 175.895L290.635 172.278C290.53 172.041 290.472 171.785 290.466 171.525C290.459 171.266 290.504 171.007 290.598 170.765C290.691 170.522 290.831 170.301 291.011 170.113C291.19 169.924 291.404 169.773 291.642 169.668Z" fill="#F07A01"></path>
<path d="M300.491 189.532C300.934 189.335 301.433 189.307 301.895 189.454C302.357 189.601 302.748 189.912 302.996 190.328L303.113 190.539L304.717 194.144C304.959 194.61 305.006 195.153 304.848 195.653C304.69 196.154 304.34 196.571 303.874 196.813C303.408 197.055 302.866 197.102 302.365 196.944C301.865 196.786 301.447 196.436 301.205 195.97L301.1 195.759L299.484 192.142C299.271 191.664 299.256 191.121 299.442 190.632C299.629 190.142 300.002 189.747 300.479 189.532H300.491Z" fill="#F07A01"></path>
<path d="M406.025 481.109C408.388 500.717 412.683 530.48 412.683 530.48C407.402 546.381 404.147 562.885 402.995 579.601C400.402 607.059 396.436 634.37 391.11 661.431C389.679 667.473 386.649 676.146 396.337 676.146H448.488C448.488 676.146 450.352 669.82 442.529 666.84C434.961 663.462 427.616 659.603 420.54 655.289C420.54 655.289 447.705 565.835 451.867 533.659C456.028 501.483 452.383 481.109 452.383 481.109H406.025Z" fill="#FFC8FF"></path>
<path d="M350.145 484.439C349.779 504.181 349.047 527.285 349.047 527.285C341.616 542.307 336.113 558.207 332.667 574.608C326.342 603.289 318.169 653.775 316.305 661.598C314.873 667.624 311.844 676.313 321.532 676.313H373.682C373.682 676.313 375.547 669.988 367.723 666.992C360.152 663.625 352.807 659.772 345.734 655.456C345.734 655.456 378.859 567.151 387.348 535.857C395.837 504.564 395.155 483.69 395.155 483.69L350.145 484.439Z" fill="#FFC8FF"></path>
<path d="M378.01 368.718C378.709 400.029 390.378 436.865 391.976 454.676C392.958 463.965 393.125 473.322 392.475 482.641C403.113 485.418 414.158 486.292 425.101 485.221C434.825 484.538 444.474 483.04 453.947 480.743C453.947 480.743 453.248 439.911 449.353 411.597C445.458 383.283 438.95 367.42 438.95 367.42L378.01 368.718Z" fill="#326393"></path>
<path d="M378.01 368.718C378.709 400.029 390.378 436.865 391.976 454.676C392.958 463.965 393.125 473.322 392.475 482.641C403.113 485.418 414.158 486.292 425.101 485.221C434.825 484.538 444.474 483.04 453.947 480.743C453.947 480.743 453.248 439.911 449.353 411.597C445.458 383.283 438.95 367.42 438.95 367.42L378.01 368.718Z" fill="#9C1051"></path>
<path d="M331.652 376.691C330.537 407.985 339.975 445.421 340.624 463.249C341.077 472.579 340.703 481.932 339.508 491.197C349.971 494.577 360.947 496.087 371.934 495.658C381.679 495.545 391.396 494.604 400.981 492.844C400.981 492.844 402.645 452.046 400.398 423.549C398.151 395.051 392.558 378.855 392.558 378.855L331.652 376.691Z" fill="#C5226D"></path>
<path d="M349.48 188.912C331.036 202.894 315.772 237.35 313.925 257.475C312.077 277.599 424.951 265.997 424.951 265.997C424.951 265.997 426.749 241.695 427.298 228.278L437.085 228.695C437.085 228.695 442.911 218.957 442.529 209.269C442.409 203.829 441.367 198.448 439.449 193.356C439.449 193.356 408.904 182.919 388.397 184.051C375.334 184.837 362.335 186.46 349.48 188.912Z" fill="url(#paint3_linear)"></path>
<path d="M420.306 109.346C433.124 113.674 435.288 114.34 430.544 127.24C425.8 140.141 426.016 156.553 412.05 151.643C412.05 151.643 405.159 169.653 404.61 178.459C404.06 187.264 410.952 196.852 410.952 196.852C410.952 196.852 400.964 207.539 380.989 203.078C358.967 198.084 349.479 188.912 349.479 188.912C357.143 183.189 364.139 176.623 370.336 169.337C379.192 158.501 390.178 129.388 390.178 129.388C395.132 122.766 400.968 116.852 407.523 111.81C418.209 103.753 414.714 107.449 420.306 109.346Z" fill="url(#paint4_linear)"></path>
<path d="M439.166 194.472C462.636 201.729 495.045 221.105 508.761 245.857C521.345 268.495 523.31 286.639 522.477 295.594C521.645 304.549 516.618 303.134 516.618 303.134C516.618 303.134 515.769 291.399 512.973 287.77C512.973 287.77 514.088 298.673 511.025 298.673C507.962 298.673 507.38 290.351 506.265 284.691C505.149 279.032 489.203 254.529 476.918 243.36C464.905 235.871 451.93 230.048 438.35 226.049C442.329 220.822 442.778 202.512 439.166 194.472Z" fill="#FFC8FF"></path>
<path d="M410.003 89.5205C429.495 86.9571 437.701 100.041 437.568 119.915C437.418 143.835 431.027 159.316 419.058 161.213C407.09 163.111 397.086 148.13 393.973 128.504C390.861 108.879 397.985 91.1018 410.003 89.5205Z" fill="#FFC8FF"></path>
<path d="M410.003 89.521C424.218 87.6566 432.441 94.1152 435.787 105.467C423.686 106.033 411.751 96.0794 405.176 100.274C398.601 104.469 395.188 113.457 395.188 113.457L393.524 113.99C394.906 100.823 401.081 90.7028 410.003 89.521Z" fill="#F9B6FF"></path>
<path d="M404.66 66.6332C418.292 63.0377 420.007 75.7717 428.096 76.9702C436.186 78.1686 439.249 65.3182 446.64 69.7459C455.628 75.2057 452.582 95.9794 438.85 99.5249C425.666 102.854 410.069 90.7194 403.095 97.128C397.136 102.604 395.704 114.223 395.704 114.223L387.099 113.607C387.099 113.607 378.925 73.3747 404.66 66.6332Z" fill="#6B1C9F"></path>
<path d="M404.659 66.6332C418.292 63.0377 420.007 75.7717 428.096 76.9702C436.186 78.1686 439.249 65.3182 446.623 69.7459C450.202 71.8932 451.867 76.4042 451.733 81.3978C451.312 80.9778 450.843 80.6091 450.335 80.2993C442.945 75.8216 434.555 87.8231 426.465 86.6079C418.375 85.3928 416.644 72.6755 403.012 76.2876C393.241 78.8677 388.364 86.275 386.05 94.4314C386.949 83.0291 391.077 70.1621 404.659 66.6332Z" fill="#7822B1"></path>
<path d="M387.149 112.509L394.822 113.058C395.155 111.129 395.606 109.223 396.171 107.349C397.242 103.188 399.389 99.3819 402.396 96.3127C406.441 92.5841 412.883 94.4151 419.691 96.3127C425.716 97.9772 432.525 99.9747 438.584 98.4266C441.855 97.5437 444.73 95.578 446.74 92.8504C448.732 90.1588 450.02 87.0116 450.485 83.6953C451.351 77.836 449.636 72.6593 446.091 70.512C445.967 70.4461 445.858 70.3555 445.77 70.2461C445.683 70.1367 445.618 70.0106 445.581 69.8755C445.544 69.7403 445.534 69.599 445.554 69.4602C445.573 69.3213 445.62 69.1878 445.693 69.0678C445.765 68.9478 445.861 68.8438 445.975 68.7622C446.089 68.6806 446.219 68.623 446.355 68.593C446.492 68.5631 446.634 68.5613 446.772 68.5878C446.909 68.6144 447.04 68.6688 447.156 68.7476C449.479 70.2346 451.178 72.5198 451.933 75.1727C452.805 78.0289 453.01 81.047 452.533 83.9949C452.004 87.6477 450.58 91.1131 448.388 94.0821C446.108 97.1888 442.838 99.4258 439.116 100.424C432.458 102.089 425.4 100.091 419.142 98.3102C412.883 96.5291 407.007 94.8478 403.811 97.7941C398.201 102.938 396.753 114.14 396.736 114.257C396.703 114.515 396.573 114.752 396.372 114.919C396.172 115.086 395.915 115.17 395.654 115.156L387.032 114.54H386.832C386.702 114.507 386.579 114.448 386.471 114.367C386.363 114.286 386.273 114.185 386.205 114.069C386.137 113.953 386.092 113.824 386.074 113.691C386.056 113.557 386.065 113.421 386.1 113.291C386.164 113.059 386.307 112.855 386.505 112.716C386.702 112.576 386.941 112.509 387.182 112.526L387.149 112.509Z" fill="#CC3BFF"></path>
<path d="M419.325 90.4535C424.751 91.9516 430.377 93.4996 434.106 92.6341C435.718 92.3035 437.22 91.5698 438.472 90.5016C439.723 89.4333 440.684 88.0653 441.263 86.5252C442.313 83.6517 442.611 80.5575 442.129 77.5365C442.08 77.2672 442.141 76.9897 442.297 76.765C442.453 76.5402 442.692 76.3867 442.961 76.338C443.232 76.2944 443.51 76.3589 443.734 76.5177C443.958 76.6764 444.111 76.9167 444.16 77.187C445.158 83.9451 443.244 92.5508 434.572 94.5816C430.344 95.5637 424.718 94.0323 418.775 92.3843C411.451 90.3702 403.794 88.2896 399.783 91.4855C395.771 94.6815 394.939 104.419 394.939 104.519C394.917 104.79 394.79 105.042 394.584 105.219C394.379 105.397 394.111 105.486 393.84 105.468H393.657C393.422 105.413 393.215 105.274 393.075 105.079C392.934 104.883 392.869 104.643 392.891 104.403C392.891 103.953 393.774 93.6161 398.518 89.9042C403.262 86.1922 411.551 88.2729 419.325 90.4535Z" fill="#CC3BFF"></path>
<path d="M415.629 137.51C427.065 138.659 433.074 135.712 437.085 129.57C435.421 152.458 432.974 161.28 419.125 163.777C403.378 166.607 392.325 152.941 388.93 129.57C388.311 125.186 388.384 120.732 389.146 116.37L393.74 117.469C393.74 117.469 389.912 134.88 415.629 137.51Z" fill="#6B1C9F"></path>
<path d="M419.158 114.223C421.089 114.223 421.206 114.922 421.189 117.019L422.421 138.442C422.443 139.413 422.085 140.353 421.422 141.063C420.759 141.772 419.845 142.194 418.875 142.237C417.905 142.173 416.999 141.731 416.352 141.005C415.704 140.28 415.367 139.33 415.413 138.359L417.077 116.986C417.111 114.905 417.244 114.206 419.158 114.223Z" fill="#B060C4"></path>
<path d="M397.435 112.509C397.435 112.509 397.901 121.132 394.589 125.393C391.276 129.654 382.438 118.002 384.185 110.612C385.351 105.718 393.34 106.583 397.435 112.509Z" fill="#FFC8FF"></path>
<path d="M430.56 120.632C431.489 120.632 432.242 119.879 432.242 118.95C432.242 118.022 431.489 117.269 430.56 117.269C429.632 117.269 428.879 118.022 428.879 118.95C428.879 119.879 429.632 120.632 430.56 120.632Z" fill="#310047"></path>
<path d="M406.641 119.416C407.569 119.416 408.322 118.664 408.322 117.735C408.322 116.807 407.569 116.054 406.641 116.054C405.712 116.054 404.96 116.807 404.96 117.735C404.96 118.664 405.712 119.416 406.641 119.416Z" fill="#310047"></path>
<path d="M403.378 131.152C405.501 131.152 407.223 129.43 407.223 127.307C407.223 125.183 405.501 123.461 403.378 123.461C401.254 123.461 399.533 125.183 399.533 127.307C399.533 129.43 401.254 131.152 403.378 131.152Z" fill="#F9B6FF"></path>
<path d="M429.928 133.698C432.052 133.698 433.773 131.976 433.773 129.853C433.773 127.729 432.052 126.008 429.928 126.008C427.805 126.008 426.083 127.729 426.083 129.853C426.083 131.976 427.805 133.698 429.928 133.698Z" fill="#F9B6FF"></path>
<path d="M417.776 148.913C416.461 151.343 412.017 151.509 407.789 149.262C403.561 147.015 401.247 143.236 402.546 140.79C403.844 138.343 406.341 142.021 410.536 144.269C414.73 146.516 419.075 146.532 417.776 148.913Z" fill="white"></path>
<path d="M239.637 358.419C239.43 359.248 239.39 360.109 239.517 360.954C239.644 361.798 239.937 362.609 240.378 363.34C240.82 364.071 241.401 364.708 242.089 365.214C242.777 365.72 243.558 366.085 244.387 366.288L496.662 429.026C498.336 429.443 500.106 429.179 501.585 428.292C503.064 427.405 504.13 425.966 504.549 424.294L539.055 285.537C539.472 283.863 539.208 282.093 538.321 280.614C537.434 279.135 535.996 278.069 534.323 277.65L282.029 214.912C281.202 214.706 280.342 214.665 279.498 214.791C278.655 214.917 277.844 215.208 277.114 215.647C276.383 216.087 275.746 216.666 275.239 217.352C274.732 218.038 274.366 218.817 274.16 219.645L239.637 358.419Z" fill="url(#paint5_linear)"></path>
<path d="M491.768 287.203C490.875 296.119 492.469 305.108 496.374 313.173C500.278 321.238 506.34 328.064 513.888 332.894L504.477 370.734C495.544 371.454 486.986 374.641 479.757 379.939C472.529 385.237 466.913 392.438 463.537 400.74L286.922 356.806C287.828 347.889 286.239 338.895 282.334 330.828C278.428 322.76 272.359 315.936 264.803 311.115L274.214 273.276C283.146 272.547 291.703 269.357 298.933 264.06C306.163 258.763 311.784 251.567 315.172 243.269L491.768 287.203Z" fill="url(#paint6_linear)"></path>
<path d="M416.107 295.162C417.737 295.54 419.157 296.533 420.073 297.933C420.988 299.333 421.327 301.032 421.02 302.676C420.712 304.32 419.781 305.782 418.422 306.757C417.062 307.732 415.379 308.143 413.723 307.907L412.97 307.763L389.327 301.884C387.267 301.259 385.042 301.478 383.143 302.493C381.243 303.508 379.825 305.236 379.2 307.297C378.575 309.358 378.794 311.583 379.809 313.482C380.824 315.382 382.552 316.8 384.613 317.425L385.402 317.658L394.866 320.006C400.049 321.465 404.481 324.847 407.255 329.462C410.029 334.077 410.936 339.577 409.793 344.839C408.649 350.101 405.54 354.727 401.1 357.774C396.66 360.821 391.225 362.058 385.904 361.233L384.739 360.965L361.096 355.085C359.466 354.707 358.045 353.715 357.13 352.315C356.215 350.915 355.876 349.215 356.183 347.571C356.491 345.927 357.421 344.465 358.781 343.49C360.14 342.516 361.824 342.104 363.48 342.341L364.233 342.466L387.875 348.363C389.936 348.988 392.161 348.769 394.06 347.754C395.96 346.739 397.378 345.011 398.003 342.95C398.628 340.889 398.409 338.664 397.394 336.765C396.379 334.866 394.651 333.448 392.59 332.822L391.801 332.589L382.337 330.241C377.153 328.783 372.722 325.4 369.948 320.785C367.174 316.17 366.266 310.67 367.41 305.408C368.554 300.147 371.664 295.52 376.103 292.473C380.543 289.426 385.978 288.189 391.299 289.014L392.464 289.265L416.107 295.162Z" fill="white"></path>
<path d="M399.581 277.649C401.133 278.036 402.487 278.981 403.387 280.304C404.286 281.626 404.667 283.234 404.456 284.819L404.313 285.554L401.176 298.102C400.798 299.731 399.806 301.152 398.406 302.067C397.005 302.982 395.306 303.322 393.662 303.014C392.018 302.707 390.556 301.776 389.581 300.416C388.607 299.057 388.195 297.374 388.432 295.718L388.557 294.965L391.694 282.417C392.109 280.74 393.173 279.297 394.651 278.403C396.13 277.509 397.903 277.238 399.581 277.649Z" fill="white"></path>
<path d="M382.319 347.019C383.869 347.409 385.221 348.355 386.12 349.677C387.018 350.998 387.401 352.604 387.194 354.189L387.051 354.942L383.914 367.489C383.543 369.127 382.551 370.558 381.146 371.48C379.742 372.402 378.035 372.743 376.384 372.432C374.733 372.121 373.267 371.181 372.295 369.812C371.322 368.442 370.919 366.748 371.17 365.087L371.313 364.352L374.45 351.805C374.649 350.972 375.012 350.187 375.516 349.495C376.02 348.804 376.656 348.218 377.388 347.774C378.119 347.329 378.932 347.033 379.778 346.903C380.624 346.774 381.488 346.813 382.319 347.019Z" fill="white"></path>
<path d="M239.637 358.419C239.43 359.248 239.39 360.109 239.517 360.954C239.644 361.798 239.937 362.609 240.378 363.34C240.82 364.071 241.401 364.708 242.089 365.214C242.777 365.72 243.558 366.085 244.387 366.288L496.662 429.026C498.336 429.443 500.106 429.179 501.585 428.292C503.064 427.405 504.13 425.966 504.549 424.294L539.055 285.537C539.472 283.863 539.208 282.093 538.321 280.614C537.434 279.135 535.996 278.069 534.323 277.65L282.029 214.912C281.202 214.706 280.342 214.665 279.498 214.791C278.655 214.917 277.844 215.208 277.114 215.647C276.383 216.087 275.746 216.666 275.239 217.352C274.732 218.038 274.366 218.817 274.16 219.645L239.637 358.419Z" fill="url(#paint7_linear)"></path>
<path d="M491.768 287.203C490.875 296.119 492.469 305.108 496.374 313.173C500.278 321.238 506.34 328.064 513.888 332.894L504.477 370.734C495.544 371.454 486.986 374.641 479.757 379.939C472.529 385.237 466.913 392.438 463.537 400.74L286.922 356.806C287.828 347.889 286.239 338.895 282.334 330.828C278.428 322.76 272.359 315.936 264.803 311.115L274.214 273.276C283.146 272.547 291.703 269.357 298.933 264.06C306.163 258.763 311.784 251.567 315.172 243.269L491.768 287.203Z" fill="url(#paint8_linear)"></path>
<path d="M416.107 295.162C417.737 295.54 419.157 296.533 420.073 297.933C420.988 299.333 421.327 301.032 421.02 302.676C420.712 304.32 419.781 305.782 418.422 306.757C417.062 307.732 415.379 308.143 413.723 307.907L412.97 307.763L389.327 301.884C387.267 301.259 385.042 301.478 383.143 302.493C381.243 303.508 379.825 305.236 379.2 307.297C378.575 309.358 378.794 311.583 379.809 313.482C380.824 315.382 382.552 316.8 384.613 317.425L385.402 317.658L394.866 320.006C400.049 321.465 404.481 324.847 407.255 329.462C410.029 334.077 410.936 339.577 409.793 344.839C408.649 350.101 405.54 354.727 401.1 357.774C396.66 360.821 391.225 362.058 385.904 361.233L384.739 360.965L361.096 355.085C359.466 354.707 358.045 353.715 357.13 352.315C356.215 350.915 355.876 349.215 356.183 347.571C356.491 345.927 357.421 344.465 358.781 343.49C360.14 342.516 361.824 342.104 363.48 342.341L364.233 342.466L387.875 348.363C389.936 348.988 392.161 348.769 394.06 347.754C395.96 346.739 397.378 345.011 398.003 342.95C398.628 340.889 398.409 338.664 397.394 336.765C396.379 334.866 394.651 333.448 392.59 332.822L391.801 332.589L382.337 330.241C377.153 328.783 372.722 325.4 369.948 320.785C367.174 316.17 366.266 310.67 367.41 305.408C368.554 300.147 371.664 295.52 376.103 292.473C380.543 289.426 385.978 288.189 391.299 289.014L392.464 289.265L416.107 295.162Z" fill="white"></path>
<path d="M399.581 277.649C401.133 278.036 402.487 278.981 403.387 280.304C404.286 281.626 404.667 283.234 404.456 284.819L404.313 285.554L401.176 298.102C400.798 299.731 399.806 301.152 398.406 302.067C397.005 302.982 395.306 303.322 393.662 303.014C392.018 302.707 390.556 301.776 389.581 300.416C388.607 299.057 388.195 297.374 388.432 295.718L388.557 294.965L391.694 282.417C392.109 280.74 393.173 279.297 394.651 278.403C396.13 277.509 397.903 277.238 399.581 277.649Z" fill="white"></path>
<path d="M382.319 347.019C383.869 347.409 385.221 348.355 386.12 349.677C387.018 350.998 387.401 352.604 387.194 354.189L387.051 354.942L383.914 367.489C383.543 369.127 382.551 370.558 381.146 371.48C379.742 372.402 378.035 372.743 376.384 372.432C374.733 372.121 373.267 371.181 372.295 369.812C371.322 368.442 370.919 366.748 371.17 365.087L371.313 364.352L374.45 351.805C374.649 350.972 375.012 350.187 375.516 349.495C376.02 348.804 376.656 348.218 377.388 347.774C378.119 347.329 378.932 347.033 379.778 346.903C380.624 346.774 381.488 346.813 382.319 347.019Z" fill="white"></path>
<path d="M254.611 108.701C254.48 108.941 254.397 109.205 254.367 109.477C254.338 109.749 254.362 110.024 254.439 110.287C254.516 110.55 254.644 110.794 254.816 111.008C254.988 111.221 255.2 111.398 255.441 111.529L328.511 151.599C328.996 151.865 329.566 151.928 330.097 151.774C330.628 151.619 331.076 151.261 331.343 150.776L353.382 110.586C353.648 110.101 353.711 109.531 353.557 109C353.402 108.469 353.044 108.021 352.559 107.754L279.483 67.6829C279.244 67.5512 278.981 67.4681 278.709 67.4382C278.437 67.4084 278.162 67.4324 277.9 67.5089C277.637 67.5854 277.392 67.7129 277.179 67.884C276.966 68.0552 276.789 68.2667 276.657 68.5065L254.611 108.701Z" fill="url(#paint9_linear)"></path>
<path d="M338.588 107.237C337.582 109.928 337.341 112.845 337.892 115.664C338.443 118.483 339.764 121.094 341.709 123.208L335.699 134.168C332.871 133.662 329.957 133.95 327.284 135.001C324.61 136.052 322.28 137.826 320.555 140.123L269.4 112.067C270.41 109.376 270.653 106.459 270.102 103.639C269.551 100.819 268.227 98.2074 266.279 96.0954L272.29 85.1354C275.118 85.6396 278.031 85.3502 280.705 84.2994C283.379 83.2486 285.71 81.4774 287.439 79.1824L338.588 107.237Z" fill="url(#paint10_linear)"></path>
<path d="M314.484 103.519C314.958 103.77 315.317 104.194 315.486 104.702C315.656 105.211 315.622 105.766 315.392 106.25C315.162 106.735 314.754 107.112 314.253 107.303C313.752 107.494 313.197 107.484 312.703 107.275L312.481 107.169L305.633 103.414C305.045 103.052 304.338 102.938 303.666 103.097C302.994 103.256 302.414 103.676 302.051 104.264C301.689 104.852 301.575 105.559 301.735 106.231C301.894 106.903 302.314 107.483 302.901 107.846L303.127 107.982L305.869 109.484C307.356 110.36 308.453 111.77 308.936 113.428C309.418 115.085 309.25 116.864 308.465 118.402C307.681 119.939 306.339 121.119 304.713 121.701C303.088 122.282 301.302 122.221 299.72 121.531L299.381 121.352L292.533 117.597C292.059 117.347 291.699 116.923 291.53 116.414C291.361 115.905 291.395 115.351 291.624 114.866C291.854 114.382 292.262 114.005 292.763 113.814C293.264 113.623 293.82 113.633 294.314 113.841L294.537 113.942L301.383 117.703C301.971 118.065 302.679 118.179 303.35 118.019C304.022 117.86 304.603 117.44 304.965 116.852C305.328 116.265 305.442 115.557 305.282 114.885C305.123 114.214 304.703 113.633 304.115 113.271L303.89 113.134L301.148 111.632C299.661 110.756 298.564 109.346 298.081 107.689C297.598 106.031 297.767 104.252 298.551 102.715C299.336 101.177 300.678 99.9972 302.303 99.4156C303.929 98.8341 305.714 98.8949 307.296 99.5856L307.637 99.7586L314.484 103.519Z" fill="white"></path>
<path d="M310.793 96.7399C311.242 96.9867 311.585 97.3904 311.755 97.8738C311.926 98.3573 311.913 98.8867 311.718 99.3609L311.613 99.577L309.615 103.21C309.365 103.684 308.941 104.043 308.432 104.213C307.923 104.382 307.369 104.348 306.884 104.118C306.4 103.889 306.023 103.481 305.832 102.98C305.641 102.479 305.651 101.923 305.86 101.429L305.96 101.206L307.958 97.5731C308.224 97.0872 308.672 96.7266 309.203 96.5704C309.735 96.4142 310.306 96.4751 310.793 96.7399Z" fill="white"></path>
<path d="M299.771 116.832C300.22 117.079 300.562 117.483 300.732 117.966C300.903 118.449 300.89 118.978 300.696 119.453L300.591 119.674L298.592 123.307C298.343 123.785 297.919 124.147 297.408 124.318C296.898 124.489 296.341 124.455 295.854 124.224C295.368 123.992 294.99 123.581 294.801 123.077C294.611 122.573 294.625 122.015 294.838 121.521L294.943 121.305L296.941 117.672C297.071 117.43 297.247 117.216 297.46 117.043C297.673 116.87 297.918 116.741 298.181 116.662C298.444 116.584 298.72 116.559 298.993 116.588C299.266 116.617 299.531 116.7 299.771 116.832Z" fill="white"></path>
<path d="M254.611 108.701C254.48 108.941 254.397 109.205 254.367 109.477C254.338 109.749 254.362 110.024 254.439 110.287C254.516 110.55 254.644 110.794 254.816 111.008C254.988 111.221 255.2 111.398 255.441 111.529L328.511 151.599C328.996 151.865 329.566 151.928 330.097 151.774C330.628 151.619 331.076 151.261 331.343 150.776L353.382 110.586C353.648 110.101 353.711 109.531 353.557 109C353.402 108.469 353.044 108.021 352.559 107.754L279.483 67.6829C279.244 67.5512 278.981 67.4681 278.709 67.4382C278.437 67.4084 278.162 67.4324 277.9 67.5089C277.637 67.5854 277.392 67.7129 277.179 67.884C276.966 68.0552 276.789 68.2667 276.657 68.5065L254.611 108.701Z" fill="url(#paint11_linear)"></path>
<path d="M338.588 107.237C337.582 109.928 337.341 112.845 337.892 115.664C338.443 118.483 339.764 121.094 341.709 123.208L335.699 134.168C332.871 133.662 329.957 133.95 327.284 135.001C324.61 136.052 322.28 137.826 320.555 140.123L269.4 112.067C270.41 109.376 270.653 106.459 270.102 103.639C269.551 100.819 268.227 98.2074 266.279 96.0954L272.29 85.1354C275.118 85.6396 278.031 85.3502 280.705 84.2994C283.379 83.2486 285.71 81.4774 287.439 79.1824L338.588 107.237Z" fill="url(#paint12_linear)"></path>
<path d="M314.484 103.519C314.958 103.77 315.317 104.194 315.486 104.702C315.656 105.211 315.622 105.766 315.392 106.25C315.162 106.735 314.754 107.112 314.253 107.303C313.752 107.494 313.197 107.484 312.703 107.275L312.481 107.169L305.633 103.414C305.045 103.052 304.338 102.938 303.666 103.097C302.994 103.256 302.414 103.676 302.051 104.264C301.689 104.852 301.575 105.559 301.735 106.231C301.894 106.903 302.314 107.483 302.901 107.846L303.127 107.982L305.869 109.484C307.356 110.36 308.453 111.77 308.936 113.428C309.418 115.085 309.25 116.864 308.465 118.402C307.681 119.939 306.339 121.119 304.713 121.701C303.088 122.282 301.302 122.221 299.72 121.531L299.381 121.352L292.533 117.597C292.059 117.347 291.699 116.923 291.53 116.414C291.361 115.905 291.395 115.351 291.624 114.866C291.854 114.382 292.262 114.005 292.763 113.814C293.264 113.623 293.82 113.633 294.314 113.841L294.537 113.942L301.383 117.703C301.971 118.065 302.679 118.179 303.35 118.019C304.022 117.86 304.603 117.44 304.965 116.852C305.328 116.265 305.442 115.557 305.282 114.885C305.123 114.214 304.703 113.633 304.115 113.271L303.89 113.134L301.148 111.632C299.661 110.756 298.564 109.346 298.081 107.689C297.598 106.031 297.767 104.252 298.551 102.715C299.336 101.177 300.678 99.9972 302.303 99.4156C303.929 98.8341 305.714 98.8949 307.296 99.5856L307.637 99.7586L314.484 103.519Z" fill="white"></path>
<path d="M310.793 96.7399C311.242 96.9867 311.585 97.3904 311.755 97.8738C311.926 98.3573 311.913 98.8867 311.718 99.3609L311.613 99.577L309.615 103.21C309.365 103.684 308.941 104.043 308.432 104.213C307.923 104.382 307.369 104.348 306.884 104.118C306.4 103.889 306.023 103.481 305.832 102.98C305.641 102.479 305.651 101.923 305.86 101.429L305.96 101.206L307.958 97.5731C308.224 97.0872 308.672 96.7266 309.203 96.5704C309.735 96.4142 310.306 96.4751 310.793 96.7399Z" fill="white"></path>
<path d="M299.771 116.832C300.22 117.079 300.562 117.483 300.732 117.966C300.903 118.449 300.89 118.978 300.696 119.453L300.591 119.674L298.592 123.307C298.343 123.785 297.919 124.147 297.408 124.318C296.898 124.489 296.341 124.455 295.854 124.224C295.368 123.992 294.99 123.581 294.801 123.077C294.611 122.573 294.625 122.015 294.838 121.521L294.943 121.305L296.941 117.672C297.071 117.43 297.247 117.216 297.46 117.043C297.673 116.87 297.918 116.741 298.181 116.662C298.444 116.584 298.72 116.559 298.993 116.588C299.266 116.617 299.531 116.7 299.771 116.832Z" fill="white"></path>
<path opacity="0.07" d="M328.656 231.592C334.315 230.576 340.624 234.538 345.901 236.752C350.895 238.866 355.888 236.419 359.7 240.214C359.7 240.214 349.28 286.156 357.852 313.338C366.425 340.521 377.994 373.695 382.471 379.272C386.949 384.848 393.657 388.21 394.406 393.054C395.155 397.898 383.969 392.322 383.969 392.322L384.336 394.186L390.661 395.667C389.599 397.362 388.063 398.707 386.243 399.536C384.423 400.365 382.399 400.64 380.424 400.328C373.533 399.213 375.031 395.867 372.6 396.233C370.17 396.6 367.39 398.098 365.526 397.166C363.662 396.233 366.458 394.369 362.546 393.837C358.635 393.304 337.079 356.034 328.706 314.953C318.918 266.88 328.656 231.592 328.656 231.592Z" fill="#303030"></path>
<path d="M325.826 222.819C331.482 221.804 337.31 222.452 342.605 224.684C347.592 226.798 352.137 229.83 356.005 233.622C356.005 233.622 344.103 286.156 352.676 313.338C361.248 340.52 372.817 373.695 377.278 379.271C381.739 384.848 388.464 388.21 389.213 393.054C389.962 397.898 378.776 392.321 378.776 392.321L379.142 394.186L385.484 395.667C384.418 397.362 382.878 398.706 381.056 399.535C379.233 400.363 377.208 400.639 375.231 400.328C368.339 399.213 369.837 395.867 367.407 396.233C364.977 396.599 362.197 398.098 360.333 397.165C358.468 396.233 361.265 394.369 357.353 393.836C353.441 393.304 331.885 356.034 323.512 314.953C313.742 266.88 325.826 222.819 325.826 222.819Z" fill="#FFC8FF"></path>
</g>
</g>
<defs>
<linearGradient id="paint0_linear" x1="384366" y1="81663.8" x2="384364" y2="81598" gradientUnits="userSpaceOnUse">
<stop stop-color="#FFED00"></stop>
<stop offset="1" stop-color="#FFAD00"></stop>
</linearGradient>
<linearGradient id="paint1_linear" x1="1.02188e+07" y1="-7.8046e+06" x2="1.02196e+07" y2="-7.8026e+06" gradientUnits="userSpaceOnUse">
<stop stop-color="#FFED00"></stop>
<stop offset="1" stop-color="#FFAD00"></stop>
</linearGradient>
<linearGradient id="paint2_linear" x1="6.28136e+06" y1="-4.79731e+06" x2="6.28187e+06" y2="-4.79607e+06" gradientUnits="userSpaceOnUse">
<stop stop-color="#FFED00"></stop>
<stop offset="1" stop-color="#FFAD00"></stop>
</linearGradient>
<linearGradient id="paint3_linear" x1="806496" y1="118350" x2="806496" y2="118242" gradientUnits="userSpaceOnUse">
<stop stop-color="#E63888"></stop>
<stop offset="1" stop-color="#C7236E"></stop>
</linearGradient>
<linearGradient id="paint4_linear" x1="519034" y1="134782" x2="519074" y2="134851" gradientUnits="userSpaceOnUse">
<stop stop-color="#FFC8FF"></stop>
<stop offset="1" stop-color="#E37AFD"></stop>
</linearGradient>
<linearGradient id="paint5_linear" x1="7.73942e+07" y1="1.22449e+07" x2="7.73896e+07" y2="1.2263e+07" gradientUnits="userSpaceOnUse">
<stop stop-color="#09E6A7"></stop>
<stop offset="1" stop-color="#05C991"></stop>
</linearGradient>
<linearGradient id="paint6_linear" x1="5.76629e+07" y1="1.05514e+07" x2="5.76653e+07" y2="1.05415e+07" gradientUnits="userSpaceOnUse">
<stop stop-color="#02B582"></stop>
<stop offset="1" stop-color="#01CC92"></stop>
</linearGradient>
<linearGradient id="paint7_linear" x1="7.73942e+07" y1="1.22449e+07" x2="7.73896e+07" y2="1.2263e+07" gradientUnits="userSpaceOnUse">
<stop stop-color="#09E6A7"></stop>
<stop offset="1" stop-color="#05C991"></stop>
</linearGradient>
<linearGradient id="paint8_linear" x1="5.76629e+07" y1="1.05514e+07" x2="5.76653e+07" y2="1.05415e+07" gradientUnits="userSpaceOnUse">
<stop stop-color="#02B582"></stop>
<stop offset="1" stop-color="#01CC92"></stop>
</linearGradient>
<linearGradient id="paint9_linear" x1="2.29895e+07" y1="1.01224e+07" x2="2.29866e+07" y2="1.01277e+07" gradientUnits="userSpaceOnUse">
<stop stop-color="#09E6A7"></stop>
<stop offset="1" stop-color="#05C991"></stop>
</linearGradient>
<linearGradient id="paint10_linear" x1="1.70117e+07" y1="7.98449e+06" x2="1.70133e+07" y2="7.98161e+06" gradientUnits="userSpaceOnUse">
<stop stop-color="#02B582"></stop>
<stop offset="1" stop-color="#01CC92"></stop>
</linearGradient>
<linearGradient id="paint11_linear" x1="2.29895e+07" y1="1.01224e+07" x2="2.29866e+07" y2="1.01277e+07" gradientUnits="userSpaceOnUse">
<stop stop-color="#09E6A7"></stop>
<stop offset="1" stop-color="#05C991"></stop>
</linearGradient>
<linearGradient id="paint12_linear" x1="1.70117e+07" y1="7.98449e+06" x2="1.70133e+07" y2="7.98161e+06" gradientUnits="userSpaceOnUse">
<stop stop-color="#02B582"></stop>
<stop offset="1" stop-color="#01CC92"></stop>
</linearGradient>
<clipPath id="clip0">
<rect width="750" height="550" fill="white"></rect>
</clipPath>
</defs>
</svg>