<svg xmlns="http://www.w3.org/2000/svg" xmlns:xlink="http://www.w3.org/1999/xlink" width="500.282" height="269.153" viewBox="0 0 519.282 369.153"><defs><style>.a{opacity:0.57;fill:url(#a);}.b{fill:#8f97f7;}.c{fill:#fab641;}.d{fill:#db8b2f;}.e{fill:#fbbe42;}.f{fill:#58c59d;}.g{fill:#3f57b0;}.h{fill:#a5e0db;}.i{fill:#24457b;}.j{clip-path:url(#b);}.k{fill:#f57f81;}.l{clip-path:url(#c);}.m{fill:#81b3e4;}.n{fill:#507caf;}.o{clip-path:url(#d);}.p{fill:#2c4e7e;}.q{fill:#17223d;}.r{fill:#3db79a;}.s{fill:#62cab6;}.t{fill:#b44761;}.u{fill:#53c393;}</style><linearGradient id="a" x1="0.5" y1="1" x2="0.5" gradientUnits="objectBoundingBox"><stop offset="0" stop-color="#2231ee"></stop><stop offset="1" stop-color="#f2f3ff"></stop></linearGradient><clipPath id="b"><path d="M616.733-312.262c.1,2.561-.5,8.8.742,11.45,3.014,1.514,8.407.367,12.18-1.616,2.242-1.178,4.324-1.17,6.716-1.163a28.78,28.78,0,0,0,5.495-.361c5.017-.9,8.811-3.275,9.322-5.59.556-2.527-8.509-2.189-14.834-2.579a27.557,27.557,0,0,1-11.266-2.862l-8.354,2.723" transform="translate(-616.674 314.985)"></path></clipPath><clipPath id="c"><path d="M651.405-314.471c-1.718,1.9-6.511,5.936-7.477,8.7,1.095,3.19,5.752,6.141,9.835,7.363s5.5,4.53,9.794,7.449c4.218,2.862,8.589,3.821,10.572,2.523,2.165-1.417-4.55-7.515-8.8-12.217a27.593,27.593,0,0,1-6.052-9.924l-7.873-3.9" transform="translate(-643.928 314.471)"></path></clipPath><clipPath id="d"><path d="M647.336-384.794c-1.2,3.086-3.887,6.76-5.577,9.633s-6.9,10.528-3.887,18.59c3.234,8.647,10.415,10.8,17.852,10.8h17.3c5.07,0,36.24-7.662,36.24-7.662s-3.6,2.066-5.36,7.662-5.306,43.058-5.306,43.058c2.3,2.314,5.515,3.268,9.6,2.946,0,0,9.435-29.022,13.214-39.807,3.906-11.143,8.577-22.172,7.7-27.02-1.228-6.8-13.01-7-22.739-6.664s-32.123,1.18-36.677.539l2.361-8.141-24.721-3.93" transform="translate(-636.952 384.794)"></path></clipPath></defs><g transform="translate(0 0)"><ellipse class="b" cx="223.892" cy="19.074" rx="223.892" ry="19.074" transform="translate(51.369 331.005)"></ellipse><g transform="translate(66.293)"><path class="c" d="M573.593-147.732H878.97V-354.278H573.593v206.546" transform="translate(-523.744 493.157)"></path><path class="d" d="M878.97-354.278,735.637-223.5a13.881,13.881,0,0,1-18.711,0L573.593-354.278H878.97" transform="translate(-523.744 493.157)"></path><path class="d" d="M693.008-158.015,845.7-317.375,693.008-171.586Z" transform="translate(-643.158 503.44)"></path><path class="d" d="M726.282-158.015,573.593-317.375l152.689,145.79Z" transform="translate(-371.056 503.44)"></path><path class="e" d="M878.97-354.278,737.835-235.04a17.9,17.9,0,0,1-23.106,0L573.593-354.278H878.97" transform="translate(-523.743 493.157)"></path><path class="f" d="M860.555-175.844s9.663-4.364,8.956-14.737-7.778-12.491-13.9-16.263-6.6-10.135-6.837-17.913-5.421-15.557-15.792-15.085-14.2,2.591-21.713-6.364-17.649-8.72-21.891-3.771-4.519,13.463,1.92,19.338c7.829,7.145,9.854,8.942,12.116,16.8,3.069,10.662-1.359,21.053,2.585,26.009,5.27,6.623,10.955,5,16.377,7.147s5.618,4.837,5.618,4.837h32.566" transform="translate(-786.304 521.269)"></path><path class="g" d="M804.69-245.9c8.064,4.707,18.972,14.1,28.51,26.1s17.681,26.609,20.063,41.762a.894.894,0,0,1-.745,1.023.9.9,0,0,1-1.023-.745c-2.3-14.7-10.29-29.09-19.7-40.927s-20.216-21.132-28.011-25.672a.893.893,0,0,1-.322-1.224.892.892,0,0,1,1.222-.322" transform="translate(-791.817 523.322)"></path><path class="g" d="M662.72-430.446a4.755,4.755,0,0,0-4.755-4.753,4.754,4.754,0,0,0-4.753,4.753,4.754,4.754,0,0,0,4.753,4.755,4.756,4.756,0,0,0,4.755-4.755" transform="translate(-409.298 470.608)"></path><path class="h" d="M650.125-310.729c.644.728.713,2.494-2.3,4.693s-9.21,3.07-11.729,3.178-4.153-.239-7.534,1.366-9.3,2.687-11.426,1.62c-.784-.561-.725-2.126-.725-2.126l33.712-8.731" transform="translate(-350.008 505.292)"></path><path class="i" d="M616.733-312.262c.1,2.561-.5,8.794.742,11.45,3.014,1.514,8.407.367,12.18-1.616s7.1-.6,12.21-1.524c5.017-.9,8.812-3.275,9.322-5.59.556-2.527-8.509-2.189-14.834-2.579a27.557,27.557,0,0,1-11.266-2.863l-8.354,2.723" transform="translate(-351.07 504.106)"></path><g transform="translate(265.604 189.121)"><g class="j" transform="translate(0)"><path class="h" d="M632.826-309.988a17.81,17.81,0,0,1,.366-2.046,7.864,7.864,0,0,1,1.461-3.285.469.469,0,0,1,.663-.031.467.467,0,0,1,.031.663,7.1,7.1,0,0,0-1.241,2.873c-.126.525-.215,1.011-.269,1.362s-.077.563-.077.563a.469.469,0,0,1-.517.418.468.468,0,0,1-.418-.517" transform="translate(-621.583 314.849)"></path><path class="h" d="M628.985-309.443a17.828,17.828,0,0,1,.367-2.046,7.863,7.863,0,0,1,1.461-3.285.469.469,0,0,1,.663-.031.469.469,0,0,1,.031.663,7.074,7.074,0,0,0-1.241,2.873c-.128.525-.215,1.011-.269,1.362s-.077.563-.078.563a.468.468,0,0,1-.515.418.468.468,0,0,1-.418-.517" transform="translate(-612.831 315.001)"></path><path class="h" d="M625.144-308.9a17.657,17.657,0,0,1,.368-2.046,7.864,7.864,0,0,1,1.461-3.285.469.469,0,0,1,.663-.031.471.471,0,0,1,.031.663,7.078,7.078,0,0,0-1.243,2.873c-.126.525-.213,1.011-.268,1.362s-.078.563-.078.563a.468.468,0,0,1-.517.418.47.47,0,0,1-.418-.517" transform="translate(-604.08 315.153)"></path></g></g><path class="k" d="M637.105-319.161l2.663,8.935a4.524,4.524,0,0,1,1.824.542c.605.442,1.693,2.124,2.494,1.964,3.178-.629,4.035-5.229,4.035-5.229l-2.254-9.343-8.763,3.13" transform="translate(-374.105 502.07)"></path><path class="i" d="M651.41-381.72l1.207,9.416,32.861-.672a10.545,10.545,0,0,1,10.031,7.713c2.293,7.863,10.879,60.632,10.879,60.632s-4.617,3.4-9.307,2.665c0,0-15.492-32.045-17.71-40.847a45.675,45.675,0,0,1-1.1-16.225l-39.609-3.44L651.41-381.72" transform="translate(-434.36 485.51)"></path><path class="h" d="M675.445-290.33c-.048.97-1.233,2.281-4.925,1.747s-8.729-4.245-10.606-5.93-2.8-3.076-6.34-4.293-8.524-4.583-9.3-6.833c-.169-.95.97-2.027.97-2.027l30.2,17.335" transform="translate(-410.571 506.146)"></path><path class="i" d="M651.405-314.471c-1.718,1.9-6.511,5.936-7.477,8.7,1.095,3.19,5.752,6.141,9.835,7.363s5.5,4.53,9.794,7.449c4.218,2.862,8.589,3.821,10.572,2.523,2.165-1.417-4.55-7.515-8.8-12.217a27.571,27.571,0,0,1-6.051-9.924l-7.875-3.9" transform="translate(-409.256 504.249)"></path><g transform="translate(234.672 189.778)"><g class="l" transform="translate(0)"><path class="h" d="M652.791-306.606a17.491,17.491,0,0,1,1.695-1.207,7.866,7.866,0,0,1,3.342-1.326.468.468,0,0,1,.494.442.469.469,0,0,1-.44.5,7.077,7.077,0,0,0-2.9,1.185c-.459.286-.859.573-1.144.786s-.45.348-.45.348a.47.47,0,0,1-.661-.063.468.468,0,0,1,.063-.66" transform="translate(-638.816 315.957)"></path><path class="h" d="M650.425-303.531a18.343,18.343,0,0,1,1.694-1.205,7.845,7.845,0,0,1,3.342-1.326.469.469,0,0,1,.5.442.469.469,0,0,1-.442.5,7.061,7.061,0,0,0-2.9,1.185c-.459.286-.861.573-1.146.786s-.448.348-.45.348a.468.468,0,0,1-.66-.063.47.47,0,0,1,.061-.661" transform="translate(-633.427 316.814)"></path><path class="h" d="M648.062-300.455a18.143,18.143,0,0,1,1.693-1.205,7.844,7.844,0,0,1,3.341-1.326.469.469,0,0,1,.5.442.47.47,0,0,1-.442.5,7.062,7.062,0,0,0-2.9,1.185c-.459.286-.861.573-1.146.784s-.448.349-.448.349a.47.47,0,0,1-.661-.063.468.468,0,0,1,.063-.661" transform="translate(-628.04 317.671)"></path></g></g><path class="k" d="M654.836-320.6l-1.442,7.841a4.519,4.519,0,0,1,.924,1.664c.123.738-.274,2.7.407,3.149,2.712,1.771,6.543-.916,6.543-.916l3.164-9.7-9.6-2.041" transform="translate(-411.245 502.54)"></path><path class="m" d="M647.334-384.794c-1.2,3.086-3.887,6.76-5.577,9.633s-6.9,10.528-3.887,18.59c3.232,8.647,10.415,10.8,17.85,10.8h17.3c5.07,0,36.24-7.663,36.24-7.663s-3.6,2.068-5.36,7.663-5.306,43.058-5.306,43.058c2.3,2.314,5.515,3.268,9.6,2.946,0,0,9.338-29.056,13.214-39.807,4.052-11.23,8.577-22.172,7.7-27.02-1.228-6.8-13.01-7-22.738-6.664s-32.125,1.18-36.678.539l2.361-8.141-24.721-3.93" transform="translate(-455.004 484.654)"></path><path class="n" d="M649.89-356.572c-3.013-8.062,2.2-15.717,3.887-18.59s4.376-6.547,5.577-9.633l24.721,3.93-1.509,5.2s-13.709,1.881-19.686-5.2c0,0-4.37,6.644-5.636,10.63-1.746,5.5-1.268,14.416,9.5,16.559s50.495-3.7,55.754-4.286,3.507,2.453.585,8.63-4.146,17.255-6.775,30.522c-1.678,8.468-3.572,17.7-3.572,17.7a9.524,9.524,0,0,1-2.116-1.609s3.544-37.463,5.305-43.058,5.36-7.662,5.36-7.662-31.17,7.662-36.24,7.662h-17.3c-7.435,0-14.617-2.15-17.85-10.8" transform="translate(-467.024 484.654)"></path><g transform="translate(181.946 99.86)"><g class="o"><path class="p" d="M650.576-384.678a51.856,51.856,0,0,1-2.455,8.79,23.636,23.636,0,0,0-1.548,7.926c0,.29.007.585.021.887a7.3,7.3,0,0,0,3.355,6.286c2.259,1.468,5.894,2.3,11.3,2.3,1.9,0,4.027-.1,6.383-.312,7.292-.653,16.4-1.761,24.308-2.706s14.583-1.729,17.115-1.73a4.1,4.1,0,0,1,.987.083,1.964,1.964,0,0,1,1.212.905,3.4,3.4,0,0,1,.366,1.713c-.007,2.1-.955,5.563-2.666,11.375-1.4,4.76-4.532,17.818-7.3,29.665-1.384,5.924-2.682,11.55-3.631,15.695s-1.553,6.8-1.555,6.807l-.915-.208c0-.007,9.661-42.6,12.5-52.225,1.713-5.788,2.636-9.274,2.627-11.109a2.478,2.478,0,0,0-.24-1.241,1,1,0,0,0-.653-.472,3.431,3.431,0,0,0-.733-.049c-2.39,0-9.107.777-17,1.724s-17.021,2.054-24.337,2.707c-2.38.213-4.528.317-6.467.317-5.495,0-9.295-.83-11.808-2.453a8.255,8.255,0,0,1-3.785-7.031c-.014-.317-.021-.626-.021-.929a24.585,24.585,0,0,1,1.6-8.224,51.139,51.139,0,0,0,2.419-8.645l.926.153" transform="translate(-630.452 384.783)"></path><path class="p" d="M688.77-366.7l.075.014a6.758,6.758,0,0,0,1.176.1,6.949,6.949,0,0,0,4.639-1.683,7.23,7.23,0,0,0,1.618-2.994,39.789,39.789,0,0,0,1.444-6.785c.143-1.05.244-1.971.309-2.627s.092-1.045.092-1.047l.936.067c0,.01-.2,2.845-.76,6.006a33.415,33.415,0,0,1-1.13,4.685,7.985,7.985,0,0,1-1.887,3.4,7.893,7.893,0,0,1-5.26,1.918,7.175,7.175,0,0,1-1.459-.133l.208-.916" transform="translate(-672.784 385.649)"></path><path class="p" d="M664.433-319.674a12.693,12.693,0,0,1-2.535.225,14.485,14.485,0,0,1-10.308-4.122l.66-.667a13.543,13.543,0,0,0,9.648,3.85,13.848,13.848,0,0,0,1.712-.1c.2-.026.361-.051.467-.07l.153-.029.2.916" transform="translate(-590.884 401.668)"></path></g></g><path class="q" d="M699.088-454.253s4.954-4.194,14.2-3.316c7.363.7,12.747,4.978,14.44,10.364s1.183,15.243-7.743,20.753c0,0,2.77,1.509-.307,4.433,0,0,4.77,1.166,6.31,3.814s0,5.132-.924,8.124-1.231,3.454,2.77,7.454,7.442,11.08,1.8,20.16S714.176-365.777,700.54-366.5c-13.794-.731-29.368-5.328-33.277-26.575s9.479-26.084,13.173-25.13a44.2,44.2,0,0,1-2.844-20.767c1.231-11.7,6.939-16.948,11.743-17.326,7.068-.558,9.752,2.046,9.752,2.046" transform="translate(-496.24 464.341)"></path><path class="k" d="M645.237-421.478c1.826.551,4.872,1.009,6.485,2.268s17.553,26.081,17.553,26.081,14.684-22.982,16.866-25.718c2.288-2.869,13.477-6.456,15.513-6.049,2.518.5,1.156,3.643.644,5.686-.293,1.17-.752,4.4-2.827,5.834s-9.445,2.544-9.445,2.544-13.213,27.806-15.944,31.975c-1.766,2.7-3.711,2.728-6.988-.876-3.173-3.488-15.833-20.092-15.833-20.092l-6.025-21.652" transform="translate(-439.508 473.47)"></path><path class="r" d="M684.266-422.23c2.912,1.055,5.6.987,7.068,2.864s2.745,10.449,2.745,10.449-7.3-1.451-9.245-5.28a18.493,18.493,0,0,1-2-7.292l1.429-.742" transform="translate(-478.537 474.222)"></path><path class="s" d="M689.72-425.966a5.11,5.11,0,0,1-2.467.885c-1.628.237-6.937,1.393-8.009,3.381-2.578,3.556.065,15.226,1.567,23.416.915,4.993,9.765,16.2,3.722,27.639,0,0,13.62,8.038,27.366,1.253,1.435-6.806-.252-11.549-.3-19.209,1.944-2.111,3.872-5.987,4.046-8.5.653-9.344-8.691-12.193-15.969-22.595-2.032-2.905-3.568-2.764-6.335-4.881a6.523,6.523,0,0,0-3.621-1.391" transform="translate(-494.157 473.181)"></path><path class="k" d="M719.02-422.592c-4.114-2.595-7.452.605-9.4,5.282s-12.237,33.736-13.139,37.347,3.069,39.345,4.151,41.423,2.215,3.556,6.342,3.556h18.963s-.938-1.937-4.187-2.747-12.454-1.079-14.26-3.967-1.036-36.221-1.036-36.221,11.422-24.4,13.949-30.464,1.534-12.369-1.384-14.208" transform="translate(-527.673 473.863)"></path><path class="r" d="M707.646-424c2.436,0,8.018,5.541,3.306,15.789,0,0-6.11-8.666-11.707-6.56,0,0,2.446-10.62,8.4-9.228" transform="translate(-518.221 473.693)"></path><path class="k" d="M695.088-433.3l-4.3,3.824-1.9,6.436a16.866,16.866,0,0,1,3.739,3.372c1.265,1.908,4.1,6.5,7.513,6.886a27.773,27.773,0,0,1,.172-6.366c.516-2.227,2.073-6.645,2.073-6.645l-7.3-7.507" transform="translate(-494.586 471.138)"></path><path class="t" d="M689.677-433.3a23.088,23.088,0,0,0-.769,5.43c.155,1.828,1.771,5.628,6,8.722.517-2.227,2.073-6.646,2.073-6.646l-7.3-7.507" transform="translate(-489.175 471.138)"></path><path class="t" d="M679.256-439.632c.806,2.893,4.119,6.947,3.4,7.67-.6.6-3.423.465-3.423.465a5.3,5.3,0,0,1-1.372-4.808c.7-2.806,1.4-3.328,1.4-3.328" transform="translate(-460.663 469.373)"></path><path class="k" d="M698.534-453.746c4,.365,8.014,5.911,7.939,10.956s-1.243,7.791-.922,11.354a22.069,22.069,0,0,1-1.2,10.736c-1,2.486-3.589,3.045-7.043,2.211-3.164-.764-7.486-3.809-8.482-4.767s-1.185-4.31-1.185-4.31a9.889,9.889,0,0,1-6.884-5.014c-2.163-4.318-1.771-22.946,17.775-21.166" transform="translate(-487.142 465.407)"></path><path class="q" d="M695.828-427.029A6.483,6.483,0,0,1,691.9-433.5c.394-4.915,7.014-5.091,6.745-.764a14.693,14.693,0,0,0,7.45-4.226c5.3-6.218,5.892-11.283,5.892-11.283-1.122-7.743-13.816-5-13.816-5s-6.429-2.781-11.9.869c-3.918,2.612-5.914,11.987-2.74,19.792s8,10.915,8,10.915l4.3-3.824" transform="translate(-495.326 464.87)"></path><path class="q" d="M685.487-438.41a1.159,1.159,0,0,0-1.222-1.093,1.161,1.161,0,0,0-1.093,1.224,1.158,1.158,0,0,0,1.222,1.091,1.159,1.159,0,0,0,1.093-1.222" transform="translate(-470.373 469.409)"></path><path class="q" d="M687.722-440.833l-5.3,1.679a2.765,2.765,0,0,1,1.94-2.366,3.127,3.127,0,0,1,3.357.687" transform="translate(-471.653 468.794)"></path><path class="t" d="M694.967-439.131a2.711,2.711,0,0,1,2.4.269c.225.181-.16.552-.377.472-1.219-.453-2.711-.517-3.313.91l-.075-.055a1.99,1.99,0,0,1,1.362-1.6" transform="translate(-495.664 469.469)"></path><path class="t" d="M695.073-439.078l.416.367a1.653,1.653,0,0,0-.665.586,2.191,2.191,0,0,0-.29,1.379,2.464,2.464,0,0,0,1.967,2.365l.022.075a2.365,2.365,0,0,1-2.44-1.734c-.263-1.025-.193-2.477.989-3.038" transform="translate(-495.202 469.528)"></path><path class="k" d="M701.533-419.6c-.068,1.383,2.544,4.431,1.9,6.538s-5.014,2.392-7.374,0-3.737-9.888-6.951-11.926a1.825,1.825,0,0,0,1.591-1.3l10.833,6.683" transform="translate(-496.014 473.092)"></path><path class="i" d="M651.824-426.592s1.287,11.356-3.1,20.445a1.9,1.9,0,0,0,.811,2.464l5.346,2.97a1.911,1.911,0,0,0,2.815-1.309,56.97,56.97,0,0,0-1.048-25.126l-4.825.557" transform="translate(-399.236 472.851)"></path><path class="k" d="M650.761-424.415c-1.354.384-3.313,1.222-3.367,2.51s2.07,1.342,2.07,1.342-1.51.672-1.623,1.621.839,1.9,2.238,1.9c0,0-1.446.493-1,1.785s2.569.228,2.989,1.18a6.049,6.049,0,0,0,1.369-3.972c.113-2.74-2.673-6.368-2.673-6.368" transform="translate(-392.576 473.613)"></path><path class="k" d="M650.752-418.513c1.289-2.477,2.557-4.279,5.479-5.425,2.491-.977,3.671-2.9,4.32-1.92s-1.113,4.063-3.839,4.992l-5.96,2.353" transform="translate(-404.119 473.136)"></path><path class="i" d="M661.625-423.745l-11.046,1.393c-2.835.341-4.591-14.23-1.756-14.573l10.843-1.824,1.959,15" transform="translate(-400.749 469.619)"></path><path class="g" d="M624.4-434.689c4.03-.455,17.891-6.939,20.9-18.6,11.366-1.442,16.694,40.547,5.328,41.989-3.128-7.251-18.7-9.089-24.272-8.386-2.158.281-4.117-14.723-1.959-15" transform="translate(-365.483 465.558)"></path><path class="q" d="M695.235-461.568a13.943,13.943,0,0,0-5.537,3.212,12.957,12.957,0,0,0-3.921,5.735.67.67,0,0,1-.827.464.671.671,0,0,1-.465-.827,14.239,14.239,0,0,1,4.317-6.371,15.186,15.186,0,0,1,6.124-3.519.672.672,0,0,1,.808.5.671.671,0,0,1-.5.808" transform="translate(-482.283 462.892)"></path><path class="u" d="M569.179-180.921s-10.47-11.163-8.449-32.667,20.934-26.841,24.332-16.445c2.673,8.178-15.743,27.228-9.176,49.112h-6.707" transform="translate(-213.324 526.346)"></path><path class="g" d="M576.1-229.225a34.674,34.674,0,0,0-4.567,10.183,62.025,62.025,0,0,0-2.586,17.606,53.04,53.04,0,0,0,3.379,18.941.9.9,0,0,1-.516,1.156.9.9,0,0,1-1.156-.518,54.8,54.8,0,0,1-3.5-19.579,63.778,63.778,0,0,1,2.663-18.121,36.046,36.046,0,0,1,4.864-10.761.894.894,0,0,1,1.255-.162.894.894,0,0,1,.16,1.255" transform="translate(-212.822 527.601)"></path></g></g></svg>